<svg width="10" height="9" xmlns="http://www.w3.org/2000/svg"><g fill="none"><path d="M5 8.7a.323.323 0 0 1-.148-.036A14.851 14.851 0 0 1 1.528 6.18C-.02 4.627-.006 3.344.001 2.796v-.084C.002 1.217 1.27 0 2.828 0 3.67 0 4.467.367 5 .98A2.885 2.885 0 0 1 7.173 0c1.558 0 2.825 1.217 2.825 2.712l.001.084c.007.548.022 1.831-1.527 3.383a14.851 14.851 0 0 1-3.324 2.485A.323.323 0 0 1 5 8.7z" fill="#442719"/><path d="M9.686 2.712C9.686 1.38 8.56.3 7.173.3A2.53 2.53 0 0 0 5 1.502 2.532 2.532 0 0 0 2.827.3C1.439.3.314 1.38.314 2.712c0 .47-.109 1.708 1.44 3.26C3.302 7.524 5 8.4 5 8.4s1.698-.876 3.246-2.428c1.549-1.552 1.44-2.79 1.44-3.26z" fill="#D95B52"/><path d="M5 6.75a5.902 5.902 0 0 1-3.716-1.3c.137.17.292.344.47.522C3.302 7.524 5 8.4 5 8.4s1.698-.876 3.246-2.428c.178-.178.333-.352.47-.521A5.914 5.914 0 0 1 5 6.75z" fill="#BD443A"/></g></svg>